<?xml version="1.0" standalone="no"?>
<svg width="567.429" height="364.244" viewBox="0 0 567.429 364.244" xmlns="http://www.w3.org/2000/svg" shape-rendering="crispEdges">
<title>
/root/Hough/mapL.svg
</title>
<desc>
Creator: ROOT Version 6.26/10
CreationDate: Fri Mar  3 13:49:55 2023</desc>
<defs>
</defs>
<rect x="0.5" y="0" width="566.929" height="363.744" fill="white"/>
<rect x="6.16929" y="3.63744" width="272.126" height="356.469" fill="white"/>
<rect x="42.4158" y="39.0741" width="219.525" height="284.885" fill="white"/>
<rect x="42.4158" y="39.0741" width="219.525" height="284.885" fill="none" stroke="black"/>
<rect x="42.4158" y="39.0741" width="219.525" height="284.885" fill="white"/>
<rect x="42.4158" y="39.0741" width="219.525" height="284.885" fill="none" stroke="black"/>
<g stroke="black" stroke-width="1" fill="none">
<line x1="198.551" y1="308.305" x2="204.235" y2="308.305"/><line x1="201.393" y1="305.463" x2="201.393" y2="311.146"/>
<line x1="151.213" y1="285.194" x2="156.896" y2="285.194"/><line x1="154.054" y1="282.352" x2="154.054" y2="288.036"/>
<line x1="238.075" y1="277.089" x2="243.759" y2="277.089"/><line x1="240.917" y1="274.248" x2="240.917" y2="279.931"/>
<line x1="60.4493" y1="179.662" x2="66.1328" y2="179.662"/><line x1="63.2911" y1="176.82" x2="63.2911" y2="182.503"/>
<line x1="232.831" y1="138.273" x2="238.514" y2="138.273"/><line x1="235.672" y1="135.431" x2="235.672" y2="141.115"/>
<line x1="109.823" y1="115.895" x2="115.507" y2="115.895"/><line x1="112.665" y1="113.054" x2="112.665" y2="118.737"/>
<line x1="222.284" y1="40.8022" x2="227.968" y2="40.8022"/><line x1="225.126" y1="37.9605" x2="225.126" y2="43.644"/>
</g>
<path d="M42.4158,323.96h 219.525" fill="none" stroke="black"/>
<path d="M42.4158,315.333v 8.62695" fill="none" stroke="black"/>
<path d="M47.9039,319.646v 4.31348" fill="none" stroke="black"/>
<path d="M53.3921,319.646v 4.31348" fill="none" stroke="black"/>
<path d="M58.8802,319.646v 4.31348" fill="none" stroke="black"/>
<path d="M64.3683,315.333v 8.62695" fill="none" stroke="black"/>
<path d="M69.8565,319.646v 4.31348" fill="none" stroke="black"/>
<path d="M75.3446,319.646v 4.31348" fill="none" stroke="black"/>
<path d="M80.8327,319.646v 4.31348" fill="none" stroke="black"/>
<path d="M86.3208,315.333v 8.62695" fill="none" stroke="black"/>
<path d="M91.809,319.646v 4.31348" fill="none" stroke="black"/>
<path d="M97.2971,319.646v 4.31348" fill="none" stroke="black"/>
<path d="M102.785,319.646v 4.31348" fill="none" stroke="black"/>
<path d="M108.273,315.333v 8.62695" fill="none" stroke="black"/>
<path d="M113.761,319.646v 4.31348" fill="none" stroke="black"/>
<path d="M119.25,319.646v 4.31348" fill="none" stroke="black"/>
<path d="M124.738,319.646v 4.31348" fill="none" stroke="black"/>
<path d="M130.226,315.333v 8.62695" fill="none" stroke="black"/>
<path d="M135.714,319.646v 4.31348" fill="none" stroke="black"/>
<path d="M141.202,319.646v 4.31348" fill="none" stroke="black"/>
<path d="M146.69,319.646v 4.31348" fill="none" stroke="black"/>
<path d="M152.178,315.333v 8.62695" fill="none" stroke="black"/>
<path d="M157.667,319.646v 4.31348" fill="none" stroke="black"/>
<path d="M163.155,319.646v 4.31348" fill="none" stroke="black"/>
<path d="M168.643,319.646v 4.31348" fill="none" stroke="black"/>
<path d="M174.131,315.333v 8.62695" fill="none" stroke="black"/>
<path d="M179.619,319.646v 4.31348" fill="none" stroke="black"/>
<path d="M185.107,319.646v 4.31348" fill="none" stroke="black"/>
<path d="M190.595,319.646v 4.31348" fill="none" stroke="black"/>
<path d="M196.083,315.333v 8.62695" fill="none" stroke="black"/>
<path d="M201.572,319.646v 4.31348" fill="none" stroke="black"/>
<path d="M207.06,319.646v 4.31348" fill="none" stroke="black"/>
<path d="M212.548,319.646v 4.31348" fill="none" stroke="black"/>
<path d="M218.036,315.333v 8.62695" fill="none" stroke="black"/>
<path d="M223.524,319.646v 4.31348" fill="none" stroke="black"/>
<path d="M229.012,319.646v 4.31348" fill="none" stroke="black"/>
<path d="M234.5,319.646v 4.31348" fill="none" stroke="black"/>
<path d="M239.988,315.333v 8.62695" fill="none" stroke="black"/>
<path d="M245.477,319.646v 4.31348" fill="none" stroke="black"/>
<path d="M250.965,319.646v 4.31348" fill="none" stroke="black"/>
<path d="M256.453,319.646v 4.31348" fill="none" stroke="black"/>
<path d="M261.941,315.333v 8.62695" fill="none" stroke="black"/>
<text xml:space="preserve" x="39.5741" y="337.458" fill="black" font-size="10.9856" font-family="Helvetica">10</text>
<text xml:space="preserve" x="33.1801" y="337.458" fill="black" font-size="10.9856" font-family="Times">&#8722;</text>
<text xml:space="preserve" x="63.7289" y="337.458" fill="black" font-size="10.9856" font-family="Helvetica">8</text>
<text xml:space="preserve" x="57.335" y="337.458" fill="black" font-size="10.9856" font-family="Times">&#8722;</text>
<text xml:space="preserve" x="85.7525" y="337.458" fill="black" font-size="10.9856" font-family="Helvetica">6</text>
<text xml:space="preserve" x="79.3586" y="337.458" fill="black" font-size="10.9856" font-family="Times">&#8722;</text>
<text xml:space="preserve" x="107.776" y="337.458" fill="black" font-size="10.9856" font-family="Helvetica">4</text>
<text xml:space="preserve" x="101.382" y="337.458" fill="black" font-size="10.9856" font-family="Times">&#8722;</text>
<text xml:space="preserve" x="129.8" y="337.458" fill="black" font-size="10.9856" font-family="Helvetica">2</text>
<text xml:space="preserve" x="123.406" y="337.458" fill="black" font-size="10.9856" font-family="Times">&#8722;</text>
<text xml:space="preserve" x="148.981" y="337.458" fill="black" font-size="10.9856" font-family="Helvetica">0</text>
<text xml:space="preserve" x="171.005" y="337.458" fill="black" font-size="10.9856" font-family="Helvetica">2</text>
<text xml:space="preserve" x="193.029" y="337.458" fill="black" font-size="10.9856" font-family="Helvetica">4</text>
<text xml:space="preserve" x="215.052" y="337.458" fill="black" font-size="10.9856" font-family="Helvetica">6</text>
<text xml:space="preserve" x="237.076" y="337.458" fill="black" font-size="10.9856" font-family="Helvetica">8</text>
<text xml:space="preserve" x="256.258" y="337.458" fill="black" font-size="10.9856" font-family="Helvetica">10</text>
<text xml:space="preserve" x="230.682" y="350.246" fill="black" font-size="10.9856" font-family="Helvetica"> x [cm]</text>
<path d="M42.4158,323.96v -284.885" fill="none" stroke="black"/>
<path d="M48.9402,323.96h -6.52438" fill="none" stroke="black"/>
<path d="M45.678,316.837h -3.26219" fill="none" stroke="black"/>
<path d="M45.678,309.715h -3.26219" fill="none" stroke="black"/>
<path d="M45.678,302.593h -3.26219" fill="none" stroke="black"/>
<path d="M48.9402,295.471h -6.52438" fill="none" stroke="black"/>
<path d="M45.678,288.349h -3.26219" fill="none" stroke="black"/>
<path d="M45.678,281.227h -3.26219" fill="none" stroke="black"/>
<path d="M45.678,274.105h -3.26219" fill="none" stroke="black"/>
<path d="M48.9402,266.982h -6.52438" fill="none" stroke="black"/>
<path d="M45.678,259.86h -3.26219" fill="none" stroke="black"/>
<path d="M45.678,252.738h -3.26219" fill="none" stroke="black"/>
<path d="M45.678,245.616h -3.26219" fill="none" stroke="black"/>
<path d="M48.9402,238.494h -6.52438" fill="none" stroke="black"/>
<path d="M45.678,231.372h -3.26219" fill="none" stroke="black"/>
<path d="M45.678,224.25h -3.26219" fill="none" stroke="black"/>
<path d="M45.678,217.127h -3.26219" fill="none" stroke="black"/>
<path d="M48.9402,210.005h -6.52438" fill="none" stroke="black"/>
<path d="M45.678,202.883h -3.26219" fill="none" stroke="black"/>
<path d="M45.678,195.761h -3.26219" fill="none" stroke="black"/>
<path d="M45.678,188.639h -3.26219" fill="none" stroke="black"/>
<path d="M48.9402,181.517h -6.52438" fill="none" stroke="black"/>
<path d="M45.678,174.395h -3.26219" fill="none" stroke="black"/>
<path d="M45.678,167.273h -3.26219" fill="none" stroke="black"/>
<path d="M45.678,160.15h -3.26219" fill="none" stroke="black"/>
<path d="M48.9402,153.028h -6.52438" fill="none" stroke="black"/>
<path d="M45.678,145.906h -3.26219" fill="none" stroke="black"/>
<path d="M45.678,138.784h -3.26219" fill="none" stroke="black"/>
<path d="M45.678,131.662h -3.26219" fill="none" stroke="black"/>
<path d="M48.9402,124.54h -6.52438" fill="none" stroke="black"/>
<path d="M45.678,117.418h -3.26219" fill="none" stroke="black"/>
<path d="M45.678,110.295h -3.26219" fill="none" stroke="black"/>
<path d="M45.678,103.173h -3.26219" fill="none" stroke="black"/>
<path d="M48.9402,96.0511h -6.52438" fill="none" stroke="black"/>
<path d="M45.678,88.929h -3.26219" fill="none" stroke="black"/>
<path d="M45.678,81.8069h -3.26219" fill="none" stroke="black"/>
<path d="M45.678,74.6847h -3.26219" fill="none" stroke="black"/>
<path d="M48.9402,67.5626h -6.52438" fill="none" stroke="black"/>
<path d="M45.678,60.4405h -3.26219" fill="none" stroke="black"/>
<path d="M45.678,53.3183h -3.26219" fill="none" stroke="black"/>
<path d="M45.678,46.1962h -3.26219" fill="none" stroke="black"/>
<path d="M48.9402,39.0741h -6.52438" fill="none" stroke="black"/>
<text xml:space="preserve" x="29.6279" y="328.222" fill="black" font-size="10.9856" font-family="Helvetica">10</text>
<text xml:space="preserve" x="23.234" y="328.222" fill="black" font-size="10.9856" font-family="Times">&#8722;</text>
<text xml:space="preserve" x="35.3114" y="299.094" fill="black" font-size="10.9856" font-family="Helvetica">8</text>
<text xml:space="preserve" x="28.9175" y="299.094" fill="black" font-size="10.9856" font-family="Times">&#8722;</text>
<text xml:space="preserve" x="35.3114" y="270.677" fill="black" font-size="10.9856" font-family="Helvetica">6</text>
<text xml:space="preserve" x="28.9175" y="270.677" fill="black" font-size="10.9856" font-family="Times">&#8722;</text>
<text xml:space="preserve" x="35.3114" y="242.259" fill="black" font-size="10.9856" font-family="Helvetica">4</text>
<text xml:space="preserve" x="28.9175" y="242.259" fill="black" font-size="10.9856" font-family="Times">&#8722;</text>
<text xml:space="preserve" x="35.3114" y="213.842" fill="black" font-size="10.9856" font-family="Helvetica">2</text>
<text xml:space="preserve" x="28.9175" y="213.842" fill="black" font-size="10.9856" font-family="Times">&#8722;</text>
<text xml:space="preserve" x="35.3114" y="185.424" fill="black" font-size="10.9856" font-family="Helvetica">0</text>
<text xml:space="preserve" x="35.3114" y="157.007" fill="black" font-size="10.9856" font-family="Helvetica">2</text>
<text xml:space="preserve" x="35.3114" y="128.589" fill="black" font-size="10.9856" font-family="Helvetica">4</text>
<text xml:space="preserve" x="35.3114" y="100.172" fill="black" font-size="10.9856" font-family="Helvetica">6</text>
<text xml:space="preserve" x="35.3114" y="71.7542" fill="black" font-size="10.9856" font-family="Helvetica">8</text>
<text xml:space="preserve" x="29.6279" y="43.3367" fill="black" font-size="10.9856" font-family="Helvetica">10</text>
<g transform="rotate(-90,16.1296,70.3333)">
<text xml:space="preserve" x="16.1296" y="70.3333" fill="black" font-size="10.9856" font-family="Helvetica"> y [cm]</text>
</g>
<rect x="218.428" y="26.8079" width="54.4252" height="28.5175" fill="white"/>
<path d="M218.428,55.3255h 54.4252" fill="none" stroke="black"/>
<path d="M272.853,55.3255v -28.5175" fill="none" stroke="black"/>
<path d="M272.853,26.8079h -54.4252" fill="none" stroke="black"/>
<path d="M218.428,26.8079v 28.5175" fill="none" stroke="black"/>
<text xml:space="preserve" x="220.736" y="36.2323" fill="black" font-size="7.71037" font-family="Helvetica">Entries </text>
<text xml:space="preserve" x="255.547" y="36.9427" fill="black" font-size="7.71037" font-family="Helvetica"> 144</text>
<text xml:space="preserve" x="220.736" y="49.7306" fill="black" font-size="7.71037" font-family="Helvetica">Integral </text>
<text xml:space="preserve" x="254.126" y="51.1515" fill="black" font-size="7.71037" font-family="Helvetica">      7</text>
<rect x="218.428" y="26.8079" width="54.4252" height="28.5175" fill="white"/>
<path d="M218.428,55.3255h 54.4252" fill="none" stroke="black"/>
<path d="M272.853,55.3255v -28.5175" fill="none" stroke="black"/>
<path d="M272.853,26.8079h -54.4252" fill="none" stroke="black"/>
<path d="M218.428,26.8079v 28.5175" fill="none" stroke="black"/>
<text xml:space="preserve" x="220.736" y="36.2323" fill="black" font-size="7.71037" font-family="Helvetica">Entries </text>
<text xml:space="preserve" x="255.547" y="36.9427" fill="black" font-size="7.71037" font-family="Helvetica"> 144</text>
<text xml:space="preserve" x="220.736" y="49.7306" fill="black" font-size="7.71037" font-family="Helvetica">Integral </text>
<text xml:space="preserve" x="254.126" y="51.1515" fill="black" font-size="7.71037" font-family="Helvetica">      7</text>
<g stroke="#0000ff" stroke-width="1" fill="none">
<line x1="112.717" y1="223.694" x2="118.4" y2="223.694"/><line x1="115.559" y1="220.852" x2="115.559" y2="226.536"/><line x1="113.55" y1="221.685" x2="117.568" y2="225.703"/><line x1="113.55" y1="225.703" x2="117.568" y2="221.685"/>
<line x1="182.605" y1="223.659" x2="188.288" y2="223.659"/><line x1="185.446" y1="220.817" x2="185.446" y2="226.5"/><line x1="183.437" y1="221.649" x2="187.456" y2="225.668"/><line x1="183.437" y1="225.668" x2="187.456" y2="221.649"/>
<line x1="186.706" y1="216.409" x2="192.39" y2="216.409"/><line x1="189.548" y1="213.567" x2="189.548" y2="219.25"/><line x1="187.539" y1="214.4" x2="191.557" y2="218.418"/><line x1="187.539" y1="218.418" x2="191.557" y2="214.4"/>
<line x1="186.676" y1="214.418" x2="192.36" y2="214.418"/><line x1="189.518" y1="211.576" x2="189.518" y2="217.259"/><line x1="187.509" y1="212.409" x2="191.527" y2="216.427"/><line x1="187.509" y1="216.427" x2="191.527" y2="212.409"/>
<line x1="191.779" y1="208.925" x2="197.463" y2="208.925"/><line x1="194.621" y1="206.083" x2="194.621" y2="211.766"/><line x1="192.612" y1="206.915" x2="196.63" y2="210.934"/><line x1="192.612" y1="210.934" x2="196.63" y2="206.915"/>
<line x1="103.237" y1="181.704" x2="108.921" y2="181.704"/><line x1="106.079" y1="178.862" x2="106.079" y2="184.546"/><line x1="104.07" y1="179.695" x2="108.088" y2="183.713"/><line x1="104.07" y1="183.713" x2="108.088" y2="179.695"/>
<line x1="105.497" y1="176.977" x2="111.18" y2="176.977"/><line x1="108.338" y1="174.136" x2="108.338" y2="179.819"/><line x1="106.329" y1="174.968" x2="110.348" y2="178.987"/><line x1="106.329" y1="178.987" x2="110.348" y2="174.968"/>
<line x1="195.044" y1="176.098" x2="200.727" y2="176.098"/><line x1="197.885" y1="173.256" x2="197.885" y2="178.939"/><line x1="195.876" y1="174.088" x2="199.894" y2="178.107"/><line x1="195.876" y1="178.107" x2="199.894" y2="174.088"/>
<line x1="105.268" y1="160.24" x2="110.952" y2="160.24"/><line x1="108.11" y1="157.399" x2="108.11" y2="163.082"/><line x1="106.101" y1="158.231" x2="110.119" y2="162.249"/><line x1="106.101" y1="162.249" x2="110.119" y2="158.231"/>
<line x1="182.042" y1="139.798" x2="187.726" y2="139.798"/><line x1="184.884" y1="136.956" x2="184.884" y2="142.639"/><line x1="182.875" y1="137.789" x2="186.893" y2="141.807"/><line x1="182.875" y1="141.807" x2="186.893" y2="137.789"/>
<line x1="153.932" y1="122.633" x2="159.616" y2="122.633"/><line x1="156.774" y1="119.791" x2="156.774" y2="125.474"/><line x1="154.765" y1="120.624" x2="158.783" y2="124.642"/><line x1="154.765" y1="124.642" x2="158.783" y2="120.624"/>
</g>
<rect x="218.428" y="26.8079" width="54.4252" height="28.5175" fill="white"/>
<path d="M218.428,55.3255h 54.4252" fill="none" stroke="black"/>
<path d="M272.853,55.3255v -28.5175" fill="none" stroke="black"/>
<path d="M272.853,26.8079h -54.4252" fill="none" stroke="black"/>
<path d="M218.428,26.8079v 28.5175" fill="none" stroke="black"/>
<text xml:space="preserve" x="220.736" y="36.9427" fill="black" font-size="8.10803" font-family="Helvetica">Entries </text>
<text xml:space="preserve" x="260.52" y="36.9427" fill="black" font-size="8.10803" font-family="Helvetica"> 11</text>
<text xml:space="preserve" x="220.736" y="50.4411" fill="black" font-size="8.10803" font-family="Helvetica">Integral </text>
<text xml:space="preserve" x="251.284" y="51.1515" fill="black" font-size="8.10803" font-family="Helvetica">     11</text>
<text xml:space="preserve" x="46.6784" y="56.835" fill="#0000ff" font-size="12.9828" font-family="Helvetica" font-weight="bold">Cherenkov Photon</text>
<text xml:space="preserve" x="46.6784" y="74.5959" fill="black" font-size="12.9828" font-family="Helvetica" font-weight="bold">Background Photon</text>
<text xml:space="preserve" x="120.564" y="18.4714" fill="black" font-size="12.1715" font-family="Helvetica">Hit Map</text>
<rect x="289.634" y="3.63744" width="272.126" height="356.469" fill="white"/>
<rect x="316.846" y="39.2844" width="217.701" height="285.175" fill="white"/>
<rect x="316.846" y="39.2844" width="217.701" height="285.175" fill="none" stroke="black"/>
<rect x="316.846" y="39.2844" width="217.701" height="285.175" fill="white"/>
<rect x="316.846" y="39.2844" width="217.701" height="285.175" fill="none" stroke="black"/>
<path d="M316.846,324.46h 104.787v -135.798h 0.290268v 135.798h 3.48321v -135.798h 0.290268v 135.798h 0.580535v -135.798h 0.290268v 135.798h 0.290268v -271.596h 0.290268v 135.798h 0.580535v 135.798h 0.290268v -135.798h 0.290268v 135.798h 0.870803v
 -135.798h 0.290268v 135.798h 1.16107v -135.798h 0.290268v 135.798h 4.06375v -135.798h 0.290268v 135.798h 99.2716" fill="none" stroke="black"/>
<rect x="501.892" y="26.8079" width="54.4252" height="28.5175" fill="white"/>
<path d="M501.892,55.3255h 54.4252" fill="none" stroke="black"/>
<path d="M556.317,55.3255v -28.5175" fill="none" stroke="black"/>
<path d="M556.317,26.8079h -54.4252" fill="none" stroke="black"/>
<path d="M501.892,26.8079v 28.5175" fill="none" stroke="black"/>
<text xml:space="preserve" x="504.2" y="36.9427" fill="black" font-size="8.10803" font-family="Helvetica">Entries </text>
<text xml:space="preserve" x="543.985" y="36.9427" fill="black" font-size="8.10803" font-family="Helvetica"> 11</text>
<text xml:space="preserve" x="504.2" y="50.4411" fill="black" font-size="8.10803" font-family="Helvetica">Integral </text>
<text xml:space="preserve" x="534.749" y="51.1515" fill="black" font-size="8.10803" font-family="Helvetica">     11</text>
<path d="M316.846,324.46h 217.701" fill="none" stroke="black"/>
<path d="M316.846,315.904v 8.55526" fill="none" stroke="black"/>
<path d="M322.652,320.182v 4.27763" fill="none" stroke="black"/>
<path d="M328.457,320.182v 4.27763" fill="none" stroke="black"/>
<path d="M334.263,320.182v 4.27763" fill="none" stroke="black"/>
<path d="M340.068,320.182v 4.27763" fill="none" stroke="black"/>
<path d="M345.873,315.904v 8.55526" fill="none" stroke="black"/>
<path d="M351.679,320.182v 4.27763" fill="none" stroke="black"/>
<path d="M357.484,320.182v 4.27763" fill="none" stroke="black"/>
<path d="M363.289,320.182v 4.27763" fill="none" stroke="black"/>
<path d="M369.095,320.182v 4.27763" fill="none" stroke="black"/>
<path d="M374.9,315.904v 8.55526" fill="none" stroke="black"/>
<path d="M380.705,320.182v 4.27763" fill="none" stroke="black"/>
<path d="M386.511,320.182v 4.27763" fill="none" stroke="black"/>
<path d="M392.316,320.182v 4.27763" fill="none" stroke="black"/>
<path d="M398.121,320.182v 4.27763" fill="none" stroke="black"/>
<path d="M403.927,315.904v 8.55526" fill="none" stroke="black"/>
<path d="M409.732,320.182v 4.27763" fill="none" stroke="black"/>
<path d="M415.537,320.182v 4.27763" fill="none" stroke="black"/>
<path d="M421.343,320.182v 4.27763" fill="none" stroke="black"/>
<path d="M427.148,320.182v 4.27763" fill="none" stroke="black"/>
<path d="M432.954,315.904v 8.55526" fill="none" stroke="black"/>
<path d="M438.759,320.182v 4.27763" fill="none" stroke="black"/>
<path d="M444.564,320.182v 4.27763" fill="none" stroke="black"/>
<path d="M450.37,320.182v 4.27763" fill="none" stroke="black"/>
<path d="M456.175,320.182v 4.27763" fill="none" stroke="black"/>
<path d="M461.98,315.904v 8.55526" fill="none" stroke="black"/>
<path d="M467.786,320.182v 4.27763" fill="none" stroke="black"/>
<path d="M473.591,320.182v 4.27763" fill="none" stroke="black"/>
<path d="M479.396,320.182v 4.27763" fill="none" stroke="black"/>
<path d="M485.202,320.182v 4.27763" fill="none" stroke="black"/>
<path d="M491.007,315.904v 8.55526" fill="none" stroke="black"/>
<path d="M496.812,320.182v 4.27763" fill="none" stroke="black"/>
<path d="M502.618,320.182v 4.27763" fill="none" stroke="black"/>
<path d="M508.423,320.182v 4.27763" fill="none" stroke="black"/>
<path d="M514.229,320.182v 4.27763" fill="none" stroke="black"/>
<path d="M520.034,315.904v 8.55526" fill="none" stroke="black"/>
<path d="M520.034,315.904v 8.55526" fill="none" stroke="black"/>
<path d="M525.839,320.182v 4.27763" fill="none" stroke="black"/>
<path d="M531.645,320.182v 4.27763" fill="none" stroke="black"/>
<text xml:space="preserve" x="313.803" y="336.037" fill="black" font-size="9.23799" font-family="Helvetica">0</text>
<text xml:space="preserve" x="340.089" y="336.037" fill="black" font-size="9.23799" font-family="Helvetica">0.1</text>
<text xml:space="preserve" x="367.796" y="336.037" fill="black" font-size="9.23799" font-family="Helvetica">0.2</text>
<text xml:space="preserve" x="396.924" y="336.037" fill="black" font-size="9.23799" font-family="Helvetica">0.3</text>
<text xml:space="preserve" x="426.052" y="336.037" fill="black" font-size="9.23799" font-family="Helvetica">0.4</text>
<text xml:space="preserve" x="455.18" y="336.037" fill="black" font-size="9.23799" font-family="Helvetica">0.5</text>
<text xml:space="preserve" x="484.308" y="336.037" fill="black" font-size="9.23799" font-family="Helvetica">0.6</text>
<text xml:space="preserve" x="513.436" y="336.037" fill="black" font-size="9.23799" font-family="Helvetica">0.7</text>
<text xml:space="preserve" x="487.86" y="346.694" fill="black" font-size="9.23799" font-family="Helvetica"> angle [rad]</text>
<path d="M316.846,324.46v -285.175" fill="none" stroke="black"/>
<path d="M323.377,324.46h -6.53102" fill="none" stroke="black"/>
<path d="M320.112,317.67h -3.26551" fill="none" stroke="black"/>
<path d="M320.112,310.88h -3.26551" fill="none" stroke="black"/>
<path d="M320.112,304.09h -3.26551" fill="none" stroke="black"/>
<path d="M323.377,297.3h -6.53102" fill="none" stroke="black"/>
<path d="M320.112,290.51h -3.26551" fill="none" stroke="black"/>
<path d="M320.112,283.72h -3.26551" fill="none" stroke="black"/>
<path d="M320.112,276.93h -3.26551" fill="none" stroke="black"/>
<path d="M323.377,270.141h -6.53102" fill="none" stroke="black"/>
<path d="M320.112,263.351h -3.26551" fill="none" stroke="black"/>
<path d="M320.112,256.561h -3.26551" fill="none" stroke="black"/>
<path d="M320.112,249.771h -3.26551" fill="none" stroke="black"/>
<path d="M323.377,242.981h -6.53102" fill="none" stroke="black"/>
<path d="M320.112,236.191h -3.26551" fill="none" stroke="black"/>
<path d="M320.112,229.401h -3.26551" fill="none" stroke="black"/>
<path d="M320.112,222.611h -3.26551" fill="none" stroke="black"/>
<path d="M323.377,215.821h -6.53102" fill="none" stroke="black"/>
<path d="M320.112,209.032h -3.26551" fill="none" stroke="black"/>
<path d="M320.112,202.242h -3.26551" fill="none" stroke="black"/>
<path d="M320.112,195.452h -3.26551" fill="none" stroke="black"/>
<path d="M323.377,188.662h -6.53102" fill="none" stroke="black"/>
<path d="M320.112,181.872h -3.26551" fill="none" stroke="black"/>
<path d="M320.112,175.082h -3.26551" fill="none" stroke="black"/>
<path d="M320.112,168.292h -3.26551" fill="none" stroke="black"/>
<path d="M323.377,161.502h -6.53102" fill="none" stroke="black"/>
<path d="M320.112,154.712h -3.26551" fill="none" stroke="black"/>
<path d="M320.112,147.923h -3.26551" fill="none" stroke="black"/>
<path d="M320.112,141.133h -3.26551" fill="none" stroke="black"/>
<path d="M323.377,134.343h -6.53102" fill="none" stroke="black"/>
<path d="M320.112,127.553h -3.26551" fill="none" stroke="black"/>
<path d="M320.112,120.763h -3.26551" fill="none" stroke="black"/>
<path d="M320.112,113.973h -3.26551" fill="none" stroke="black"/>
<path d="M323.377,107.183h -6.53102" fill="none" stroke="black"/>
<path d="M320.112,100.393h -3.26551" fill="none" stroke="black"/>
<path d="M320.112,93.6035h -3.26551" fill="none" stroke="black"/>
<path d="M320.112,86.8136h -3.26551" fill="none" stroke="black"/>
<path d="M323.377,80.0237h -6.53102" fill="none" stroke="black"/>
<path d="M320.112,73.2338h -3.26551" fill="none" stroke="black"/>
<path d="M320.112,66.4439h -3.26551" fill="none" stroke="black"/>
<path d="M320.112,59.654h -3.26551" fill="none" stroke="black"/>
<path d="M323.377,52.8641h -6.53102" fill="none" stroke="black"/>
<path d="M323.377,52.8641h -6.53102" fill="none" stroke="black"/>
<path d="M320.112,46.0742h -3.26551" fill="none" stroke="black"/>
<path d="M320.112,39.2844h -3.26551" fill="none" stroke="black"/>
<text xml:space="preserve" x="310.251" y="327.512" fill="black" font-size="9.23799" font-family="Helvetica">0</text>
<text xml:space="preserve" x="302.436" y="300.515" fill="black" font-size="9.23799" font-family="Helvetica">0.2</text>
<text xml:space="preserve" x="302.436" y="273.518" fill="black" font-size="9.23799" font-family="Helvetica">0.4</text>
<text xml:space="preserve" x="302.436" y="246.522" fill="black" font-size="9.23799" font-family="Helvetica">0.6</text>
<text xml:space="preserve" x="302.436" y="218.815" fill="black" font-size="9.23799" font-family="Helvetica">0.8</text>
<text xml:space="preserve" x="311.672" y="192.529" fill="black" font-size="9.23799" font-family="Helvetica">1</text>
<text xml:space="preserve" x="302.436" y="165.532" fill="black" font-size="9.23799" font-family="Helvetica">1.2</text>
<text xml:space="preserve" x="302.436" y="138.535" fill="black" font-size="9.23799" font-family="Helvetica">1.4</text>
<text xml:space="preserve" x="302.436" y="110.118" fill="black" font-size="9.23799" font-family="Helvetica">1.6</text>
<text xml:space="preserve" x="302.436" y="83.1212" fill="black" font-size="9.23799" font-family="Helvetica">1.8</text>
<text xml:space="preserve" x="310.251" y="56.835" fill="black" font-size="9.23799" font-family="Helvetica">2</text>
<g transform="rotate(-90,297.463,100.172)">
<text xml:space="preserve" x="297.463" y="100.172" fill="black" font-size="9.23799" font-family="Helvetica"> counts/1 mrad</text>
</g>
<rect x="501.892" y="26.8079" width="54.4252" height="28.5175" fill="white"/>
<path d="M501.892,55.3255h 54.4252" fill="none" stroke="black"/>
<path d="M556.317,55.3255v -28.5175" fill="none" stroke="black"/>
<path d="M556.317,26.8079h -54.4252" fill="none" stroke="black"/>
<path d="M501.892,26.8079v 28.5175" fill="none" stroke="black"/>
<text xml:space="preserve" x="504.2" y="36.9427" fill="black" font-size="8.10803" font-family="Helvetica">Entries </text>
<text xml:space="preserve" x="543.985" y="36.9427" fill="black" font-size="8.10803" font-family="Helvetica"> 11</text>
<text xml:space="preserve" x="504.2" y="50.4411" fill="black" font-size="8.10803" font-family="Helvetica">Integral </text>
<text xml:space="preserve" x="534.749" y="51.1515" fill="black" font-size="8.10803" font-family="Helvetica">     11</text>
<path d="M316.846,324.46h 143.392v -135.798h 0.290268v 135.798h 0.290268v -135.798h 0.290268v 135.798h 7.83723v -135.798h 0.290268v 135.798h 18.8674v -135.798h 0.290268v 135.798h 1.74161v -135.798h 0.290268v 135.798h 8.9983v -135.798h 0.290268v
 135.798h 3.48321v -135.798h 0.290268v 135.798h 2.03187" fill="none" stroke="#0000ff"/>
<text xml:space="preserve" x="340.8" y="18.4714" fill="black" font-size="11.1633" font-family="Helvetica">Chrenkov Photons And Background</text></svg>
