<?xml version="1.0" standalone="no"?>
<svg width="567.429" height="364.244" viewBox="0 0 567.429 364.244" xmlns="http://www.w3.org/2000/svg" shape-rendering="crispEdges">
<title>
/root/PhD-Project-Proposal-1st-Revision-Flatland/HoughCp/MAPS/HMAP.svg
</title>
<desc>
Creator: ROOT Version 6.26/10
CreationDate: Fri Mar  3 15:08:50 2023</desc>
<defs>
</defs>
<rect x="0.5" y="0" width="566.929" height="363.744" fill="white"/>
<rect x="6.16929" y="3.63744" width="272.126" height="356.469" fill="white"/>
<rect x="33.3819" y="39.2844" width="217.701" height="285.175" fill="white"/>
<rect x="33.3819" y="39.2844" width="217.701" height="285.175" fill="none" stroke="black"/>
<rect x="33.3819" y="39.2844" width="217.701" height="285.175" fill="white"/>
<rect x="33.3819" y="39.2844" width="217.701" height="285.175" fill="none" stroke="black"/>
<g stroke="black" stroke-width="1" fill="none">
<line x1="206.936" y1="247.89" x2="212.619" y2="247.89"/><line x1="209.778" y1="245.048" x2="209.778" y2="250.731"/>
<line x1="222.286" y1="175.323" x2="227.97" y2="175.323"/><line x1="225.128" y1="172.482" x2="225.128" y2="178.165"/>
<line x1="108.051" y1="155.993" x2="113.734" y2="155.993"/><line x1="110.892" y1="153.151" x2="110.892" y2="158.835"/>
<line x1="83.4392" y1="87.963" x2="89.1227" y2="87.963"/><line x1="86.2809" y1="85.1213" x2="86.2809" y2="90.8048"/>
</g>
<path d="M33.3819,324.46h 217.701" fill="none" stroke="black"/>
<path d="M48.9319,315.904v 8.55526" fill="none" stroke="black"/>
<path d="M56.707,320.182v 4.27763" fill="none" stroke="black"/>
<path d="M64.482,320.182v 4.27763" fill="none" stroke="black"/>
<path d="M72.257,320.182v 4.27763" fill="none" stroke="black"/>
<path d="M80.0321,315.904v 8.55526" fill="none" stroke="black"/>
<path d="M87.8071,320.182v 4.27763" fill="none" stroke="black"/>
<path d="M95.5821,320.182v 4.27763" fill="none" stroke="black"/>
<path d="M103.357,320.182v 4.27763" fill="none" stroke="black"/>
<path d="M111.132,315.904v 8.55526" fill="none" stroke="black"/>
<path d="M118.907,320.182v 4.27763" fill="none" stroke="black"/>
<path d="M126.682,320.182v 4.27763" fill="none" stroke="black"/>
<path d="M134.457,320.182v 4.27763" fill="none" stroke="black"/>
<path d="M142.232,315.904v 8.55526" fill="none" stroke="black"/>
<path d="M150.007,320.182v 4.27763" fill="none" stroke="black"/>
<path d="M157.782,320.182v 4.27763" fill="none" stroke="black"/>
<path d="M165.557,320.182v 4.27763" fill="none" stroke="black"/>
<path d="M173.332,315.904v 8.55526" fill="none" stroke="black"/>
<path d="M181.107,320.182v 4.27763" fill="none" stroke="black"/>
<path d="M188.882,320.182v 4.27763" fill="none" stroke="black"/>
<path d="M196.657,320.182v 4.27763" fill="none" stroke="black"/>
<path d="M204.433,315.904v 8.55526" fill="none" stroke="black"/>
<path d="M212.208,320.182v 4.27763" fill="none" stroke="black"/>
<path d="M219.983,320.182v 4.27763" fill="none" stroke="black"/>
<path d="M227.758,320.182v 4.27763" fill="none" stroke="black"/>
<path d="M235.533,315.904v 8.55526" fill="none" stroke="black"/>
<path d="M48.9319,315.904v 8.55526" fill="none" stroke="black"/>
<path d="M41.1569,320.182v 4.27763" fill="none" stroke="black"/>
<path d="M33.3819,320.182v 4.27763" fill="none" stroke="black"/>
<path d="M235.533,315.904v 8.55526" fill="none" stroke="black"/>
<path d="M243.308,320.182v 4.27763" fill="none" stroke="black"/>
<path d="M251.083,320.182v 4.27763" fill="none" stroke="black"/>
<text xml:space="preserve" x="48.8097" y="338.168" fill="black" font-size="10.9856" font-family="Helvetica">6</text>
<text xml:space="preserve" x="42.4158" y="338.168" fill="black" font-size="10.9856" font-family="Times">&#8722;</text>
<text xml:space="preserve" x="79.3586" y="338.168" fill="black" font-size="10.9856" font-family="Helvetica">4</text>
<text xml:space="preserve" x="72.9646" y="338.168" fill="black" font-size="10.9856" font-family="Times">&#8722;</text>
<text xml:space="preserve" x="110.618" y="338.168" fill="black" font-size="10.9856" font-family="Helvetica">2</text>
<text xml:space="preserve" x="104.224" y="338.168" fill="black" font-size="10.9856" font-family="Times">&#8722;</text>
<text xml:space="preserve" x="139.035" y="338.168" fill="black" font-size="10.9856" font-family="Helvetica">0</text>
<text xml:space="preserve" x="170.295" y="338.168" fill="black" font-size="10.9856" font-family="Helvetica">2</text>
<text xml:space="preserve" x="201.554" y="338.168" fill="black" font-size="10.9856" font-family="Helvetica">4</text>
<text xml:space="preserve" x="232.103" y="338.168" fill="black" font-size="10.9856" font-family="Helvetica">6</text>
<text xml:space="preserve" x="219.315" y="350.956" fill="black" font-size="10.9856" font-family="Helvetica"> x [cm]</text>
<path d="M33.3819,324.46v -285.175" fill="none" stroke="black"/>
<path d="M39.9129,304.09h -6.53102" fill="none" stroke="black"/>
<path d="M36.6474,293.905h -3.26551" fill="none" stroke="black"/>
<path d="M36.6474,283.72h -3.26551" fill="none" stroke="black"/>
<path d="M36.6474,273.535h -3.26551" fill="none" stroke="black"/>
<path d="M39.9129,263.351h -6.53102" fill="none" stroke="black"/>
<path d="M36.6474,253.166h -3.26551" fill="none" stroke="black"/>
<path d="M36.6474,242.981h -3.26551" fill="none" stroke="black"/>
<path d="M36.6474,232.796h -3.26551" fill="none" stroke="black"/>
<path d="M39.9129,222.611h -6.53102" fill="none" stroke="black"/>
<path d="M36.6474,212.426h -3.26551" fill="none" stroke="black"/>
<path d="M36.6474,202.242h -3.26551" fill="none" stroke="black"/>
<path d="M36.6474,192.057h -3.26551" fill="none" stroke="black"/>
<path d="M39.9129,181.872h -6.53102" fill="none" stroke="black"/>
<path d="M36.6474,171.687h -3.26551" fill="none" stroke="black"/>
<path d="M36.6474,161.502h -3.26551" fill="none" stroke="black"/>
<path d="M36.6474,151.318h -3.26551" fill="none" stroke="black"/>
<path d="M39.9129,141.133h -6.53102" fill="none" stroke="black"/>
<path d="M36.6474,130.948h -3.26551" fill="none" stroke="black"/>
<path d="M36.6474,120.763h -3.26551" fill="none" stroke="black"/>
<path d="M36.6474,110.578h -3.26551" fill="none" stroke="black"/>
<path d="M39.9129,100.393h -6.53102" fill="none" stroke="black"/>
<path d="M36.6474,90.2085h -3.26551" fill="none" stroke="black"/>
<path d="M36.6474,80.0237h -3.26551" fill="none" stroke="black"/>
<path d="M36.6474,69.8389h -3.26551" fill="none" stroke="black"/>
<path d="M39.9129,59.654h -6.53102" fill="none" stroke="black"/>
<path d="M39.9129,304.09h -6.53102" fill="none" stroke="black"/>
<path d="M36.6474,314.275h -3.26551" fill="none" stroke="black"/>
<path d="M36.6474,324.46h -3.26551" fill="none" stroke="black"/>
<path d="M39.9129,59.654h -6.53102" fill="none" stroke="black"/>
<path d="M36.6474,49.4692h -3.26551" fill="none" stroke="black"/>
<path d="M36.6474,39.2844h -3.26551" fill="none" stroke="black"/>
<text xml:space="preserve" x="26.0758" y="308.33" fill="black" font-size="10.9856" font-family="Helvetica">6</text>
<text xml:space="preserve" x="19.6818" y="308.33" fill="black" font-size="10.9856" font-family="Times">&#8722;</text>
<text xml:space="preserve" x="26.0758" y="267.125" fill="black" font-size="10.9856" font-family="Helvetica">4</text>
<text xml:space="preserve" x="19.6818" y="267.125" fill="black" font-size="10.9856" font-family="Times">&#8722;</text>
<text xml:space="preserve" x="26.0758" y="226.63" fill="black" font-size="10.9856" font-family="Helvetica">2</text>
<text xml:space="preserve" x="19.6818" y="226.63" fill="black" font-size="10.9856" font-family="Times">&#8722;</text>
<text xml:space="preserve" x="26.0758" y="186.135" fill="black" font-size="10.9856" font-family="Helvetica">0</text>
<text xml:space="preserve" x="26.0758" y="144.929" fill="black" font-size="10.9856" font-family="Helvetica">2</text>
<text xml:space="preserve" x="26.0758" y="104.434" fill="black" font-size="10.9856" font-family="Helvetica">4</text>
<text xml:space="preserve" x="26.0758" y="63.2289" fill="black" font-size="10.9856" font-family="Helvetica">6</text>
<g transform="rotate(-90,13.2879,70.3333)">
<text xml:space="preserve" x="13.2879" y="70.3333" fill="black" font-size="10.9856" font-family="Helvetica"> y [cm]</text>
</g>
<rect x="218.428" y="26.8079" width="54.4252" height="28.5175" fill="white"/>
<path d="M218.428,55.3255h 54.4252" fill="none" stroke="black"/>
<path d="M272.853,55.3255v -28.5175" fill="none" stroke="black"/>
<path d="M272.853,26.8079h -54.4252" fill="none" stroke="black"/>
<path d="M218.428,26.8079v 28.5175" fill="none" stroke="black"/>
<text xml:space="preserve" x="220.736" y="36.9427" fill="black" font-size="7.86434" font-family="Helvetica">Entries </text>
<text xml:space="preserve" x="255.547" y="36.2323" fill="black" font-size="7.86434" font-family="Helvetica"> 431</text>
<text xml:space="preserve" x="220.736" y="50.4411" fill="black" font-size="7.86434" font-family="Helvetica">Integral </text>
<text xml:space="preserve" x="251.995" y="51.1515" fill="black" font-size="7.86434" font-family="Helvetica">      4</text>
<rect x="218.428" y="26.8079" width="54.4252" height="28.5175" fill="white"/>
<path d="M218.428,55.3255h 54.4252" fill="none" stroke="black"/>
<path d="M272.853,55.3255v -28.5175" fill="none" stroke="black"/>
<path d="M272.853,26.8079h -54.4252" fill="none" stroke="black"/>
<path d="M218.428,26.8079v 28.5175" fill="none" stroke="black"/>
<text xml:space="preserve" x="220.736" y="36.9427" fill="black" font-size="7.86434" font-family="Helvetica">Entries </text>
<text xml:space="preserve" x="255.547" y="36.2323" fill="black" font-size="7.86434" font-family="Helvetica"> 431</text>
<text xml:space="preserve" x="220.736" y="50.4411" fill="black" font-size="7.86434" font-family="Helvetica">Integral </text>
<text xml:space="preserve" x="251.995" y="51.1515" fill="black" font-size="7.86434" font-family="Helvetica">      4</text>
<g stroke="#0000ff" stroke-width="1" fill="none">
<line x1="106.172" y1="288.629" x2="111.855" y2="288.629"/><line x1="109.013" y1="285.787" x2="109.013" y2="291.471"/><line x1="107.004" y1="286.62" x2="111.022" y2="290.638"/><line x1="107.004" y1="290.638" x2="111.022" y2="286.62"/>
<line x1="227.262" y1="198.545" x2="232.946" y2="198.545"/><line x1="230.104" y1="195.703" x2="230.104" y2="201.386"/><line x1="228.095" y1="196.536" x2="232.113" y2="200.554"/><line x1="228.095" y1="200.554" x2="232.113" y2="196.536"/>
<line x1="54.5585" y1="194.696" x2="60.242" y2="194.696"/><line x1="57.4003" y1="191.854" x2="57.4003" y2="197.537"/><line x1="55.3911" y1="192.686" x2="59.4094" y2="196.705"/><line x1="55.3911" y1="196.705" x2="59.4094" y2="192.686"/>
<line x1="58.8701" y1="155.183" x2="64.5536" y2="155.183"/><line x1="61.7118" y1="152.341" x2="61.7118" y2="158.025"/><line x1="59.7027" y1="153.174" x2="63.721" y2="157.192"/><line x1="59.7027" y1="157.192" x2="63.721" y2="153.174"/>
<line x1="67.9658" y1="113.514" x2="73.6493" y2="113.514"/><line x1="70.8075" y1="110.672" x2="70.8075" y2="116.356"/><line x1="68.7984" y1="111.505" x2="72.8166" y2="115.523"/><line x1="68.7984" y1="115.523" x2="72.8166" y2="111.505"/>
<line x1="209.367" y1="109.624" x2="215.051" y2="109.624"/><line x1="212.209" y1="106.782" x2="212.209" y2="112.465"/><line x1="210.2" y1="107.615" x2="214.218" y2="111.633"/><line x1="210.2" y1="111.633" x2="214.218" y2="107.615"/>
<line x1="94.6986" y1="85.7542" x2="100.382" y2="85.7542"/><line x1="97.5403" y1="82.9124" x2="97.5403" y2="88.5959"/><line x1="95.5312" y1="83.7451" x2="99.5494" y2="87.7633"/><line x1="95.5312" y1="87.7633" x2="99.5494" y2="83.7451"/>
<line x1="111.776" y1="74.3111" x2="117.46" y2="74.3111"/><line x1="114.618" y1="71.4693" x2="114.618" y2="77.1528"/><line x1="112.609" y1="72.3019" x2="116.627" y2="76.3202"/><line x1="112.609" y1="76.3202" x2="116.627" y2="72.3019"/>
<line x1="170.881" y1="71.597" x2="176.565" y2="71.597"/><line x1="173.723" y1="68.7552" x2="173.723" y2="74.4387"/><line x1="171.714" y1="69.5878" x2="175.732" y2="73.6061"/><line x1="171.714" y1="73.6061" x2="175.732" y2="69.5878"/>
<line x1="154.935" y1="71.2885" x2="160.619" y2="71.2885"/><line x1="157.777" y1="68.4468" x2="157.777" y2="74.1303"/><line x1="155.768" y1="69.2794" x2="159.786" y2="73.2976"/><line x1="155.768" y1="73.2976" x2="159.786" y2="69.2794"/>
<line x1="119.777" y1="67.1118" x2="125.46" y2="67.1118"/><line x1="122.619" y1="64.27" x2="122.619" y2="69.9535"/><line x1="120.609" y1="65.1027" x2="124.628" y2="69.1209"/><line x1="120.609" y1="69.1209" x2="124.628" y2="65.1027"/>
</g>
<rect x="218.428" y="26.8079" width="54.4252" height="28.5175" fill="white"/>
<path d="M218.428,55.3255h 54.4252" fill="none" stroke="black"/>
<path d="M272.853,55.3255v -28.5175" fill="none" stroke="black"/>
<path d="M272.853,26.8079h -54.4252" fill="none" stroke="black"/>
<path d="M218.428,26.8079v 28.5175" fill="none" stroke="black"/>
<text xml:space="preserve" x="220.736" y="36.9427" fill="black" font-size="8.10803" font-family="Helvetica">Entries </text>
<text xml:space="preserve" x="260.52" y="36.9427" fill="black" font-size="8.10803" font-family="Helvetica"> 11</text>
<text xml:space="preserve" x="220.736" y="50.4411" fill="black" font-size="8.10803" font-family="Helvetica">Integral </text>
<text xml:space="preserve" x="251.284" y="51.1515" fill="black" font-size="8.10803" font-family="Helvetica">     11</text>
<path d="M228.138,181.872l -0.0432501, -3.57041l -0.129707, -3.56681l -0.216033, -3.55963l -0.302141, -3.54885l -0.387945, -3.53451l -0.473359, -3.51661l -0.558296, -3.49516l -0.642671, -3.4702l -0.726399, -3.44174l -0.809395, -3.40982l -0.891576,
 -3.37446l -0.97286, -3.33571l -1.05316, -3.29359l -1.13241, -3.24817l -1.21051, -3.19947l -1.2874, -3.14754l -1.36298, -3.09245l -1.4372, -3.03425l -1.50997, -2.97299l -1.58122, -2.90873l -1.65087, -2.84155l -1.71887, -2.77151l -1.78513, -2.69867l
 -1.84959, -2.62312l -1.9122, -2.54493l -1.97287, -2.46417l -2.03157, -2.38094l -2.08821, -2.2953l -2.14275, -2.20736l -2.19514, -2.11719l -2.24531, -2.02489l -2.29323, -1.93055l -2.33883, -1.83427l -2.38208, -1.73614l -2.42294, -1.63626l -2.46135,
 -1.53474l -2.49728, -1.43167l -2.5307, -1.32715l -2.56157, -1.2213l -2.58986, -1.11423l -2.61555, -1.00603l -2.6386, -0.896813l -2.65899, -0.786697l -2.6767, -0.675789l -2.69173, -0.5642l -2.70404, -0.452043l -2.71362, -0.339431l -2.72048,
 -0.226478l -2.72459, -0.113296h -2.72597l -2.72459, 0.113296l -2.72048, 0.226478l -2.71362, 0.339431l -2.70404, 0.452043l -2.69173, 0.5642l -2.6767, 0.675789l -2.65899, 0.786697l -2.6386, 0.896813l -2.61555, 1.00603l -2.58986, 1.11423l -2.56157,
 1.2213l -2.5307, 1.32715l -2.49728, 1.43167l -2.46135, 1.53474l -2.42294, 1.63626l -2.38208, 1.73614l -2.33883, 1.83427l -2.29323, 1.93055l -2.24531, 2.02489l -2.19514, 2.11719l -2.14275, 2.20736l -2.08821, 2.2953l -2.03157, 2.38094l -1.97287,
 2.46417l -1.9122, 2.54493l -1.84959, 2.62312l -1.78513, 2.69867l -1.71887, 2.77151l -1.65087, 2.84155l -1.58122, 2.90873l -1.50997, 2.97299l -1.4372, 3.03425l -1.36298, 3.09245l -1.2874, 3.14754l -1.21051, 3.19947l -1.13241, 3.24817l -1.05316,
 3.29359l -0.97286, 3.33571l -0.891576, 3.37446l -0.809395, 3.40982l -0.726399, 3.44174l -0.642671, 3.4702l -0.558296, 3.49516l -0.473359, 3.51661l -0.387945, 3.53451l -0.302141, 3.54885l -0.216033, 3.55963l -0.129707, 3.56681l -0.0432501, 3.57041l
 0.0432501, 3.57041l 0.129707, 3.56681l 0.216033, 3.55963l 0.302141, 3.54885l 0.387945, 3.53451l 0.473359, 3.51661l 0.558296, 3.49516l 0.642671, 3.4702l 0.726399, 3.44174l 0.809395, 3.40982l 0.891576, 3.37446l 0.97286, 3.33571l 1.05316, 3.29359l
 1.13241, 3.24817l 1.21051, 3.19947l 1.2874, 3.14754l 1.36298, 3.09245l 1.4372, 3.03425l 1.50997, 2.97299l 1.58122, 2.90873l 1.65087, 2.84155l 1.71887, 2.77151l 1.78513, 2.69867l 1.84959, 2.62312l 1.9122, 2.54493l 1.97287, 2.46417l 2.03157, 2.38094l
 2.08821, 2.2953l 2.14275, 2.20736l 2.19514, 2.11719l 2.24531, 2.02489l 2.29323, 1.93055l 2.33883, 1.83427l 2.38208, 1.73614l 2.42294, 1.63626l 2.46135, 1.53474l 2.49728, 1.43167l 2.5307, 1.32715l 2.56157, 1.2213l 2.58986, 1.11423l 2.61555, 1.00603l
 2.6386, 0.896813l 2.65899, 0.786697l 2.6767, 0.675789l 2.69173, 0.5642l 2.70404, 0.452043l 2.71362, 0.339431l 2.72048, 0.226478l 2.72459, 0.113296h 2.72597l 2.72459, -0.113296l 2.72048, -0.226478l 2.71362, -0.339431l 2.70404, -0.452043l 2.69173,
 -0.5642l 2.6767, -0.675789l 2.65899, -0.786697l 2.6386, -0.896813l 2.61555, -1.00603l 2.58986, -1.11423l 2.56157, -1.2213l 2.5307, -1.32715l 2.49728, -1.43167l 2.46135, -1.53474l 2.42294, -1.63626l 2.38208, -1.73614l 2.33883, -1.83427l 2.29323,
 -1.93055l 2.24531, -2.02489l 2.19514, -2.11719l 2.14275, -2.20736l 2.08821, -2.2953l 2.03157, -2.38094l 1.97287, -2.46417l 1.9122, -2.54493l 1.84959, -2.62312l 1.78513, -2.69867l 1.71887, -2.77151l 1.65087, -2.84155l 1.58122, -2.90873l 1.50997,
 -2.97299l 1.4372, -3.03425l 1.36298, -3.09245l 1.2874, -3.14754l 1.21051, -3.19947l 1.13241, -3.24817l 1.05316, -3.29359l 0.97286, -3.33571l 0.891576, -3.37446l 0.809395, -3.40982l 0.726399, -3.44174l 0.642671, -3.4702l 0.558296, -3.49516l 0.473359,
 -3.51661l 0.387945, -3.53451l 0.302141, -3.54885l 0.216033, -3.55963l 0.129707, -3.56681l 0.0432501, -3.57041" fill="none" stroke="#00ff00" stroke-width="2"/>
<path d="M232.389,181.872l -0.044487, -3.70962l -0.133417, -3.70596l -0.222216, -3.69864l -0.310795, -3.68768l -0.399067, -3.67307l -0.486946, -3.65484l -0.574344, -3.633l -0.661175, -3.60757l -0.747354, -3.57859l -0.832796, -3.54607l -0.917415,
 -3.51005l -1.00113, -3.47057l -1.08385, -3.42767l -1.16551, -3.38138l -1.24602, -3.33175l -1.32529, -3.27884l -1.40326, -3.22269l -1.47985, -3.16336l -1.55497, -3.10091l -1.62856, -3.0354l -1.70054, -2.96689l -1.77084, -2.89546l -1.8394, -2.82117l
 -1.90614, -2.74409l -1.971, -2.66431l -2.03391, -2.58189l -2.09482, -2.49693l -2.15366, -2.4095l -2.21037, -2.3197l -2.26491, -2.22761l -2.3172, -2.13332l -2.36721, -2.03692l -2.41489, -1.93851l -2.46018, -1.83819l -2.50304, -1.73606l -2.54344,
 -1.63221l -2.58132, -1.52675l -2.61666, -1.41979l -2.64941, -1.31142l -2.67955, -1.20176l -2.70704, -1.09091l -2.73187, -0.97899l -2.75399, -0.866101l -2.7734, -0.752357l -2.79008, -0.637871l -2.80399, -0.522755l -2.81515, -0.407123l -2.82352,
 -0.29109l -2.82911, -0.174769l -2.8319, -0.0582754l -2.8319, 0.0582754l -2.82911, 0.174769l -2.82352, 0.29109l -2.81515, 0.407123l -2.80399, 0.522755l -2.79008, 0.637871l -2.7734, 0.752357l -2.75399, 0.866101l -2.73187, 0.97899l -2.70704, 1.09091l
 -2.67955, 1.20176l -2.64941, 1.31142l -2.61666, 1.41979l -2.58132, 1.52675l -2.54344, 1.63221l -2.50304, 1.73606l -2.46018, 1.83819l -2.41489, 1.93851l -2.36721, 2.03692l -2.3172, 2.13332l -2.26491, 2.22761l -2.21037, 2.3197l -2.15366, 2.4095l
 -2.09482, 2.49693l -2.03391, 2.58189l -1.971, 2.66431l -1.90614, 2.74409l -1.8394, 2.82117l -1.77084, 2.89546l -1.70054, 2.96689l -1.62856, 3.0354l -1.55497, 3.10091l -1.47985, 3.16336l -1.40326, 3.22269l -1.32529, 3.27884l -1.24602, 3.33175l
 -1.16551, 3.38138l -1.08385, 3.42767l -1.00113, 3.47057l -0.917415, 3.51005l -0.832796, 3.54607l -0.747354, 3.57859l -0.661175, 3.60757l -0.574344, 3.633l -0.486946, 3.65484l -0.399067, 3.67307l -0.310795, 3.68768l -0.222216, 3.69864l -0.133417,
 3.70596l -0.044487, 3.70962l 0.044487, 3.70962l 0.133417, 3.70596l 0.222216, 3.69864l 0.310795, 3.68768l 0.399067, 3.67307l 0.486946, 3.65484l 0.574344, 3.633l 0.661175, 3.60757l 0.747354, 3.57859l 0.832796, 3.54607l 0.917415, 3.51005l 1.00113,
 3.47057l 1.08385, 3.42767l 1.16551, 3.38138l 1.24602, 3.33175l 1.32529, 3.27884l 1.40326, 3.22269l 1.47985, 3.16336l 1.55497, 3.10091l 1.62856, 3.0354l 1.70054, 2.96689l 1.77084, 2.89546l 1.8394, 2.82117l 1.90614, 2.74409l 1.971, 2.66431l 2.03391,
 2.58189l 2.09482, 2.49693l 2.15366, 2.4095l 2.21037, 2.3197l 2.26491, 2.22761l 2.3172, 2.13332l 2.36721, 2.03692l 2.41489, 1.93851l 2.46018, 1.83819l 2.50304, 1.73606l 2.54344, 1.63221l 2.58132, 1.52675l 2.61666, 1.41979l 2.64941, 1.31142l 2.67955,
 1.20176l 2.70704, 1.09091l 2.73187, 0.97899l 2.75399, 0.866101l 2.7734, 0.752357l 2.79008, 0.637871l 2.80399, 0.522755l 2.81515, 0.407123l 2.82352, 0.29109l 2.82911, 0.174769l 2.8319, 0.0582754l 2.8319, -0.0582754l 2.82911, -0.174769l 2.82352,
 -0.29109l 2.81515, -0.407123l 2.80399, -0.522755l 2.79008, -0.637871l 2.7734, -0.752357l 2.75399, -0.866101l 2.73187, -0.97899l 2.70704, -1.09091l 2.67955, -1.20176l 2.64941, -1.31142l 2.61666, -1.41979l 2.58132, -1.52675l 2.54344, -1.63221l
 2.50304, -1.73606l 2.46018, -1.83819l 2.41489, -1.93851l 2.36721, -2.03692l 2.3172, -2.13332l 2.26491, -2.22761l 2.21037, -2.3197l 2.15366, -2.4095l 2.09482, -2.49693l 2.03391, -2.58189l 1.971, -2.66431l 1.90614, -2.74409l 1.8394, -2.82117l 1.77084,
 -2.89546l 1.70054, -2.96689l 1.62856, -3.0354l 1.55497, -3.10091l 1.47985, -3.16336l 1.40326, -3.22269l 1.32529, -3.27884l 1.24602, -3.33175l 1.16551, -3.38138l 1.08385, -3.42767l 1.00113, -3.47057l 0.917415, -3.51005l 0.832796, -3.54607l 0.747354,
 -3.57859l 0.661175, -3.60757l 0.574344, -3.633l 0.486946, -3.65484l 0.399067, -3.67307l 0.310795, -3.68768l 0.222216, -3.69864l 0.133417, -3.70596l 0.044487, -3.70962" fill="none" stroke="#00ff00" stroke-width="2"/>
<text xml:space="preserve" x="120.564" y="18.4714" fill="black" font-size="12.1715" font-family="Helvetica">Hit Map</text>
<rect x="289.634" y="3.63744" width="272.126" height="356.469" fill="white"/>
<rect x="316.846" y="39.2844" width="217.701" height="285.175" fill="white"/>
<rect x="316.846" y="39.2844" width="217.701" height="285.175" fill="none" stroke="black"/>
<rect x="316.846" y="39.2844" width="217.701" height="285.175" fill="white"/>
<rect x="316.846" y="39.2844" width="217.701" height="285.175" fill="none" stroke="black"/>
<path d="M316.846,324.46h 142.812v -271.596h 0.290268v 271.596h 4.06375v -271.596h 0.290268v 271.596h 0.580535v -271.596h 0.580535v 271.596h 1.16107v -271.596h 0.290268v 271.596h 2.32214v -271.596h 0.290268v 271.596h 0.290268v -271.596h 0.290268v
 271.596h 0.290268v -271.596h 0.290268v 271.596h 1.16107v -271.596h 0.290268v 271.596h 0.290268v -271.596h 0.580535v 271.596h 61.5368" fill="none" stroke="#0000ff"/>
<rect x="501.892" y="26.8079" width="54.4252" height="28.5175" fill="white"/>
<path d="M501.892,55.3255h 54.4252" fill="none" stroke="black"/>
<path d="M556.317,55.3255v -28.5175" fill="none" stroke="black"/>
<path d="M556.317,26.8079h -54.4252" fill="none" stroke="black"/>
<path d="M501.892,26.8079v 28.5175" fill="none" stroke="black"/>
<text xml:space="preserve" x="504.2" y="36.9427" fill="black" font-size="8.10803" font-family="Helvetica">Entries </text>
<text xml:space="preserve" x="543.985" y="36.9427" fill="black" font-size="8.10803" font-family="Helvetica"> 11</text>
<text xml:space="preserve" x="504.2" y="50.4411" fill="black" font-size="8.10803" font-family="Helvetica">Integral </text>
<text xml:space="preserve" x="534.749" y="51.1515" fill="black" font-size="8.10803" font-family="Helvetica">     11</text>
<path d="M316.846,324.46h 217.701" fill="none" stroke="black"/>
<path d="M316.846,315.904v 8.55526" fill="none" stroke="black"/>
<path d="M322.652,320.182v 4.27763" fill="none" stroke="black"/>
<path d="M328.457,320.182v 4.27763" fill="none" stroke="black"/>
<path d="M334.263,320.182v 4.27763" fill="none" stroke="black"/>
<path d="M340.068,320.182v 4.27763" fill="none" stroke="black"/>
<path d="M345.873,315.904v 8.55526" fill="none" stroke="black"/>
<path d="M351.679,320.182v 4.27763" fill="none" stroke="black"/>
<path d="M357.484,320.182v 4.27763" fill="none" stroke="black"/>
<path d="M363.289,320.182v 4.27763" fill="none" stroke="black"/>
<path d="M369.095,320.182v 4.27763" fill="none" stroke="black"/>
<path d="M374.9,315.904v 8.55526" fill="none" stroke="black"/>
<path d="M380.705,320.182v 4.27763" fill="none" stroke="black"/>
<path d="M386.511,320.182v 4.27763" fill="none" stroke="black"/>
<path d="M392.316,320.182v 4.27763" fill="none" stroke="black"/>
<path d="M398.121,320.182v 4.27763" fill="none" stroke="black"/>
<path d="M403.927,315.904v 8.55526" fill="none" stroke="black"/>
<path d="M409.732,320.182v 4.27763" fill="none" stroke="black"/>
<path d="M415.537,320.182v 4.27763" fill="none" stroke="black"/>
<path d="M421.343,320.182v 4.27763" fill="none" stroke="black"/>
<path d="M427.148,320.182v 4.27763" fill="none" stroke="black"/>
<path d="M432.954,315.904v 8.55526" fill="none" stroke="black"/>
<path d="M438.759,320.182v 4.27763" fill="none" stroke="black"/>
<path d="M444.564,320.182v 4.27763" fill="none" stroke="black"/>
<path d="M450.37,320.182v 4.27763" fill="none" stroke="black"/>
<path d="M456.175,320.182v 4.27763" fill="none" stroke="black"/>
<path d="M461.98,315.904v 8.55526" fill="none" stroke="black"/>
<path d="M467.786,320.182v 4.27763" fill="none" stroke="black"/>
<path d="M473.591,320.182v 4.27763" fill="none" stroke="black"/>
<path d="M479.396,320.182v 4.27763" fill="none" stroke="black"/>
<path d="M485.202,320.182v 4.27763" fill="none" stroke="black"/>
<path d="M491.007,315.904v 8.55526" fill="none" stroke="black"/>
<path d="M496.812,320.182v 4.27763" fill="none" stroke="black"/>
<path d="M502.618,320.182v 4.27763" fill="none" stroke="black"/>
<path d="M508.423,320.182v 4.27763" fill="none" stroke="black"/>
<path d="M514.229,320.182v 4.27763" fill="none" stroke="black"/>
<path d="M520.034,315.904v 8.55526" fill="none" stroke="black"/>
<path d="M520.034,315.904v 8.55526" fill="none" stroke="black"/>
<path d="M525.839,320.182v 4.27763" fill="none" stroke="black"/>
<path d="M531.645,320.182v 4.27763" fill="none" stroke="black"/>
<text xml:space="preserve" x="313.803" y="336.037" fill="black" font-size="9.23799" font-family="Helvetica">0</text>
<text xml:space="preserve" x="340.089" y="336.037" fill="black" font-size="9.23799" font-family="Helvetica">0.1</text>
<text xml:space="preserve" x="367.796" y="336.037" fill="black" font-size="9.23799" font-family="Helvetica">0.2</text>
<text xml:space="preserve" x="396.924" y="336.037" fill="black" font-size="9.23799" font-family="Helvetica">0.3</text>
<text xml:space="preserve" x="426.052" y="336.037" fill="black" font-size="9.23799" font-family="Helvetica">0.4</text>
<text xml:space="preserve" x="455.18" y="336.037" fill="black" font-size="9.23799" font-family="Helvetica">0.5</text>
<text xml:space="preserve" x="484.308" y="336.037" fill="black" font-size="9.23799" font-family="Helvetica">0.6</text>
<text xml:space="preserve" x="513.436" y="336.037" fill="black" font-size="9.23799" font-family="Helvetica">0.7</text>
<text xml:space="preserve" x="487.86" y="346.694" fill="black" font-size="9.23799" font-family="Helvetica"> angle [rad]</text>
<path d="M316.846,324.46v -285.175" fill="none" stroke="black"/>
<path d="M323.377,324.46h -6.53102" fill="none" stroke="black"/>
<path d="M320.112,310.88h -3.26551" fill="none" stroke="black"/>
<path d="M320.112,297.3h -3.26551" fill="none" stroke="black"/>
<path d="M320.112,283.72h -3.26551" fill="none" stroke="black"/>
<path d="M323.377,270.141h -6.53102" fill="none" stroke="black"/>
<path d="M320.112,256.561h -3.26551" fill="none" stroke="black"/>
<path d="M320.112,242.981h -3.26551" fill="none" stroke="black"/>
<path d="M320.112,229.401h -3.26551" fill="none" stroke="black"/>
<path d="M323.377,215.821h -6.53102" fill="none" stroke="black"/>
<path d="M320.112,202.242h -3.26551" fill="none" stroke="black"/>
<path d="M320.112,188.662h -3.26551" fill="none" stroke="black"/>
<path d="M320.112,175.082h -3.26551" fill="none" stroke="black"/>
<path d="M323.377,161.502h -6.53102" fill="none" stroke="black"/>
<path d="M320.112,147.923h -3.26551" fill="none" stroke="black"/>
<path d="M320.112,134.343h -3.26551" fill="none" stroke="black"/>
<path d="M320.112,120.763h -3.26551" fill="none" stroke="black"/>
<path d="M323.377,107.183h -6.53102" fill="none" stroke="black"/>
<path d="M320.112,93.6035h -3.26551" fill="none" stroke="black"/>
<path d="M320.112,80.0237h -3.26551" fill="none" stroke="black"/>
<path d="M320.112,66.4439h -3.26551" fill="none" stroke="black"/>
<path d="M323.377,52.8641h -6.53102" fill="none" stroke="black"/>
<path d="M323.377,52.8641h -6.53102" fill="none" stroke="black"/>
<text xml:space="preserve" x="310.251" y="327.512" fill="black" font-size="9.23799" font-family="Helvetica">0</text>
<text xml:space="preserve" x="302.436" y="273.518" fill="black" font-size="9.23799" font-family="Helvetica">0.2</text>
<text xml:space="preserve" x="302.436" y="218.815" fill="black" font-size="9.23799" font-family="Helvetica">0.4</text>
<text xml:space="preserve" x="302.436" y="164.822" fill="black" font-size="9.23799" font-family="Helvetica">0.6</text>
<text xml:space="preserve" x="302.436" y="110.118" fill="black" font-size="9.23799" font-family="Helvetica">0.8</text>
<text xml:space="preserve" x="311.672" y="56.835" fill="black" font-size="9.23799" font-family="Helvetica">1</text>
<g transform="rotate(-90,297.463,100.172)">
<text xml:space="preserve" x="297.463" y="100.172" fill="black" font-size="9.23799" font-family="Helvetica"> counts/1 mrad</text>
</g>
<rect x="501.892" y="26.8079" width="54.4252" height="28.5175" fill="white"/>
<path d="M501.892,55.3255h 54.4252" fill="none" stroke="black"/>
<path d="M556.317,55.3255v -28.5175" fill="none" stroke="black"/>
<path d="M556.317,26.8079h -54.4252" fill="none" stroke="black"/>
<path d="M501.892,26.8079v 28.5175" fill="none" stroke="black"/>
<text xml:space="preserve" x="504.2" y="36.9427" fill="black" font-size="8.10803" font-family="Helvetica">Entries </text>
<text xml:space="preserve" x="543.985" y="36.9427" fill="black" font-size="8.10803" font-family="Helvetica"> 11</text>
<text xml:space="preserve" x="504.2" y="50.4411" fill="black" font-size="8.10803" font-family="Helvetica">Integral </text>
<text xml:space="preserve" x="534.749" y="51.1515" fill="black" font-size="8.10803" font-family="Helvetica">     11</text>
<path d="M316.846,324.46h 78.082v -271.596h 0.290268v 271.596h 22.0603v -271.596h 0.290268v 271.596h 5.80535v -271.596h 0.290268v 271.596h 36.5737v -271.596h 0.290268v 271.596h 0.290268v -271.596h 0.290268v 271.596h 2.03187v -271.596h 0.290268v
 271.596h 5.22482v -271.596h 0.580535v 271.596h 9.28857v -271.596h 0.290268v 271.596h 9.28857v -271.596h 0.290268v 271.596h 1.74161v -271.596h 0.290268v 271.596h 8.9983v -271.596h 0.290268v 271.596h 3.48321v -271.596h 0.290268v 271.596h 2.03187"
 fill="none" stroke="black"/>
<rect x="461.255" y="52.8641" width="16.255" height="271.596" fill="none" stroke="#00ff00"/>
<text xml:space="preserve" x="337.958" y="18.4714" fill="black" font-size="10.8193" font-family="Helvetica">Cherenkov Photons And Background</text></svg>
